<svg xmlns="http://www.w3.org/2000/svg" baseProfile="tiny" width="200" height="200" xmlns:v="https://vecta.io/nano"><style><![CDATA[.B{shape-rendering:optimizeSpeed}]]></style><path fill="#fff" d="M0 0h200v200H0z" class="B"/><path d="M17 17h5v5h-5z" class="B"/><path d="M22 17h5v5h-5z" class="B"/><path d="M27 17h5v5h-5z" class="B"/><path d="M32 17h5v5h-5z" class="B"/><path d="M37 17h5v5h-5z" class="B"/><path d="M42 17h5v5h-5z" class="B"/><path d="M47 17h5v5h-5zm15 0h5v5h-5zm30 0h5v5h-5z" class="B"/><path d="M97 17h5v5h-5z" class="B"/><path d="M102 17h5v5h-5z" class="B"/><path d="M107 17h5v5h-5z" class="B"/><path d="M112 17h5v5h-5z" class="B"/><path d="M117 17h5v5h-5z" class="B"/><path d="M122 17h5v5h-5zm10 0h5v5h-5zm15 0h5v5h-5z" class="B"/><path d="M152 17h5v5h-5z" class="B"/><path d="M157 17h5v5h-5z" class="B"/><path d="M162 17h5v5h-5z" class="B"/><path d="M167 17h5v5h-5z" class="B"/><path d="M172 17h5v5h-5z" class="B"/><path d="M177 17h5v5h-5zM17 22h5v5h-5zm30 0h5v5h-5zm10 0h5v5h-5z" class="B"/><path d="M62 22h5v5h-5zm10 0h5v5h-5z" class="B"/><path d="M77 22h5v5h-5zm30 0h5v5h-5zm15 0h5v5h-5z" class="B"/><path d="M127 22h5v5h-5zm20 0h5v5h-5zm30 0h5v5h-5zM17 27h5v5h-5zm10 0h5v5h-5z" class="B"/><path d="M32 27h5v5h-5z" class="B"/><path d="M37 27h5v5h-5zm10 0h5v5h-5zm15 0h5v5h-5z" class="B"/><path d="M67 27h5v5h-5z" class="B"/><path d="M72 27h5v5h-5zm15 0h5v5h-5zm10 0h5v5h-5zm25 0h5v5h-5z" class="B"/><path d="M127 27h5v5h-5z" class="B"/><path d="M132 27h5v5h-5zm15 0h5v5h-5zm10 0h5v5h-5z" class="B"/><path d="M162 27h5v5h-5z" class="B"/><path d="M167 27h5v5h-5zm10 0h5v5h-5zM17 32h5v5h-5zm10 0h5v5h-5z" class="B"/><path d="M32 32h5v5h-5z" class="B"/><path d="M37 32h5v5h-5zm10 0h5v5h-5zm10 0h5v5h-5z" class="B"/><path d="M62 32h5v5h-5zm10 0h5v5h-5zm30 0h5v5h-5zm10 0h5v5h-5zm15 0h5v5h-5zm20 0h5v5h-5zm10 0h5v5h-5z" class="B"/><path d="M162 32h5v5h-5z" class="B"/><path d="M167 32h5v5h-5zm10 0h5v5h-5zM17 37h5v5h-5zm10 0h5v5h-5z" class="B"/><path d="M32 37h5v5h-5z" class="B"/><path d="M37 37h5v5h-5zm10 0h5v5h-5zm20 0h5v5h-5zm10 0h5v5h-5z" class="B"/><path d="M82 37h5v5h-5z" class="B"/><path d="M87 37h5v5h-5z" class="B"/><path d="M92 37h5v5h-5zm10 0h5v5h-5z" class="B"/><path d="M107 37h5v5h-5z" class="B"/><path d="M112 37h5v5h-5z" class="B"/><path d="M117 37h5v5h-5zm15 0h5v5h-5zm15 0h5v5h-5zm10 0h5v5h-5z" class="B"/><path d="M162 37h5v5h-5z" class="B"/><path d="M167 37h5v5h-5zm10 0h5v5h-5zM17 42h5v5h-5zm30 0h5v5h-5zm10 0h5v5h-5zm10 0h5v5h-5zm15 0h5v5h-5z" class="B"/><path d="M87 42h5v5h-5z" class="B"/><path d="M92 42h5v5h-5zm10 0h5v5h-5zm20 0h5v5h-5z" class="B"/><path d="M127 42h5v5h-5zm10 0h5v5h-5zm10 0h5v5h-5zm30 0h5v5h-5zM17 47h5v5h-5z" class="B"/><path d="M22 47h5v5h-5z" class="B"/><path d="M27 47h5v5h-5z" class="B"/><path d="M32 47h5v5h-5z" class="B"/><path d="M37 47h5v5h-5z" class="B"/><path d="M42 47h5v5h-5z" class="B"/><path d="M47 47h5v5h-5zm10 0h5v5h-5zm10 0h5v5h-5zm10 0h5v5h-5zm10 0h5v5h-5zm10 0h5v5h-5zm10 0h5v5h-5zm10 0h5v5h-5zm10 0h5v5h-5zm10 0h5v5h-5zm10 0h5v5h-5z" class="B"/><path d="M152 47h5v5h-5z" class="B"/><path d="M157 47h5v5h-5z" class="B"/><path d="M162 47h5v5h-5z" class="B"/><path d="M167 47h5v5h-5z" class="B"/><path d="M172 47h5v5h-5z" class="B"/><path d="M177 47h5v5h-5zM77 52h5v5h-5z" class="B"/><path d="M82 52h5v5h-5zm15 0h5v5h-5zm10 0h5v5h-5zm10 0h5v5h-5z" class="B"/><path d="M122 52h5v5h-5zm10 0h5v5h-5zM17 57h5v5h-5z" class="B"/><path d="M22 57h5v5h-5z" class="B"/><path d="M27 57h5v5h-5z" class="B"/><path d="M32 57h5v5h-5z" class="B"/><path d="M37 57h5v5h-5zm10 0h5v5h-5z" class="B"/><path d="M52 57h5v5h-5z" class="B"/><path d="M57 57h5v5h-5z" class="B"/><path d="M62 57h5v5h-5z" class="B"/><path d="M67 57h5v5h-5zm10 0h5v5h-5zm10 0h5v5h-5zm15 0h5v5h-5zm15 0h5v5h-5zm10 0h5v5h-5z" class="B"/><path d="M132 57h5v5h-5z" class="B"/><path d="M137 57h5v5h-5z" class="B"/><path d="M142 57h5v5h-5zm10 0h5v5h-5zm10 0h5v5h-5zm10 0h5v5h-5zM42 62h5v5h-5zm15 0h5v5h-5z" class="B"/><path d="M62 62h5v5h-5zm35 0h5v5h-5zm10 0h5v5h-5z" class="B"/><path d="M112 62h5v5h-5z" class="B"/><path d="M117 62h5v5h-5zm15 0h5v5h-5z" class="B"/><path d="M137 62h5v5h-5zm10 0h5v5h-5zm25 0h5v5h-5z" class="B"/><path d="M177 62h5v5h-5zM17 67h5v5h-5z" class="B"/><path d="M22 67h5v5h-5zm10 0h5v5h-5zm10 0h5v5h-5z" class="B"/><path d="M47 67h5v5h-5z" class="B"/><path d="M52 67h5v5h-5z" class="B"/><path d="M57 67h5v5h-5z" class="B"/><path d="M62 67h5v5h-5zm10 0h5v5h-5z" class="B"/><path d="M77 67h5v5h-5zm15 0h5v5h-5z" class="B"/><path d="M97 67h5v5h-5z" class="B"/><path d="M102 67h5v5h-5zm15 0h5v5h-5z" class="B"/><path d="M122 67h5v5h-5z" class="B"/><path d="M127 67h5v5h-5zm15 0h5v5h-5z" class="B"/><path d="M147 67h5v5h-5z" class="B"/><path d="M152 67h5v5h-5zM17 72h5v5h-5z" class="B"/><path d="M22 72h5v5h-5z" class="B"/><path d="M27 72h5v5h-5z" class="B"/><path d="M32 72h5v5h-5zm20 0h5v5h-5zm10 0h5v5h-5z" class="B"/><path d="M67 72h5v5h-5z" class="B"/><path d="M72 72h5v5h-5zm15 0h5v5h-5zm10 0h5v5h-5zm20 0h5v5h-5z" class="B"/><path d="M122 72h5v5h-5zm10 0h5v5h-5zm10 0h5v5h-5z" class="B"/><path d="M147 72h5v5h-5zm10 0h5v5h-5zm10 0h5v5h-5zM17 77h5v5h-5z" class="B"/><path d="M22 77h5v5h-5zm10 0h5v5h-5zm10 0h5v5h-5z" class="B"/><path d="M47 77h5v5h-5zm15 0h5v5h-5zm10 0h5v5h-5zm30 0h5v5h-5z" class="B"/><path d="M107 77h5v5h-5z" class="B"/><path d="M112 77h5v5h-5zm20 0h5v5h-5z" class="B"/><path d="M137 77h5v5h-5z" class="B"/><path d="M142 77h5v5h-5zm10 0h5v5h-5z" class="B"/><path d="M157 77h5v5h-5zM17 82h5v5h-5z" class="B"/><path d="M22 82h5v5h-5z" class="B"/><path d="M27 82h5v5h-5z" class="B"/><path d="M32 82h5v5h-5zm10 0h5v5h-5zm10 0h5v5h-5z" class="B"/><path d="M57 82h5v5h-5zm10 0h5v5h-5zm10 0h5v5h-5z" class="B"/><path d="M82 82h5v5h-5z" class="B"/><path d="M87 82h5v5h-5zm10 0h5v5h-5z" class="B"/><path d="M102 82h5v5h-5z" class="B"/><path d="M107 82h5v5h-5z" class="B"/><path d="M112 82h5v5h-5zm20 0h5v5h-5z" class="B"/><path d="M137 82h5v5h-5zm10 0h5v5h-5zm15 0h5v5h-5zm10 0h5v5h-5z" class="B"/><path d="M177 82h5v5h-5zM17 87h5v5h-5z" class="B"/><path d="M22 87h5v5h-5z" class="B"/><path d="M27 87h5v5h-5zm20 0h5v5h-5zm10 0h5v5h-5zm25 0h5v5h-5z" class="B"/><path d="M87 87h5v5h-5z" class="B"/><path d="M92 87h5v5h-5z" class="B"/><path d="M97 87h5v5h-5zm25 0h5v5h-5z" class="B"/><path d="M127 87h5v5h-5zm10 0h5v5h-5zm15 0h5v5h-5z" class="B"/><path d="M157 87h5v5h-5z" class="B"/><path d="M162 87h5v5h-5zm10 0h5v5h-5zM17 92h5v5h-5zm10 0h5v5h-5zm10 0h5v5h-5z" class="B"/><path d="M42 92h5v5h-5zm10 0h5v5h-5z" class="B"/><path d="M57 92h5v5h-5z" class="B"/><path d="M62 92h5v5h-5z" class="B"/><path d="M67 92h5v5h-5zm10 0h5v5h-5z" class="B"/><path d="M82 92h5v5h-5zm10 0h5v5h-5zm25 0h5v5h-5z" class="B"/><path d="M122 92h5v5h-5z" class="B"/><path d="M127 92h5v5h-5zm10 0h5v5h-5z" class="B"/><path d="M142 92h5v5h-5z" class="B"/><path d="M147 92h5v5h-5zm10 0h5v5h-5zm10 0h5v5h-5zM17 97h5v5h-5z" class="B"/><path d="M22 97h5v5h-5zm25 0h5v5h-5zm10 0h5v5h-5z" class="B"/><path d="M62 97h5v5h-5zm15 0h5v5h-5zm10 0h5v5h-5zm15 0h5v5h-5zm15 0h5v5h-5zm10 0h5v5h-5zm15 0h5v5h-5zm10 0h5v5h-5z" class="B"/><path d="M157 97h5v5h-5zm15 0h5v5h-5zm-155 5h5v5h-5zm25 0h5v5h-5zm10 0h5v5h-5zm45 0h5v5h-5zm10 0h5v5h-5z" class="B"/><path d="M112 102h5v5h-5z" class="B"/><path d="M117 102h5v5h-5zm15 0h5v5h-5z" class="B"/><path d="M137 102h5v5h-5zm10 0h5v5h-5z" class="B"/><path d="M152 102h5v5h-5zm10 0h5v5h-5zm10 0h5v5h-5z" class="B"/><path d="M177 102h5v5h-5zm-145 5h5v5h-5zm10 0h5v5h-5z" class="B"/><path d="M47 107h5v5h-5zm10 0h5v5h-5zm15 0h5v5h-5z" class="B"/><path d="M77 107h5v5h-5zm15 0h5v5h-5zm25 0h5v5h-5zm20 0h5v5h-5zm25 0h5v5h-5zm10 0h5v5h-5zm-145 5h5v5h-5zm10 0h5v5h-5z" class="B"/><path d="M52 112h5v5h-5zm20 0h5v5h-5zm15 0h5v5h-5z" class="B"/><path d="M92 112h5v5h-5z" class="B"/><path d="M97 112h5v5h-5zm10 0h5v5h-5z" class="B"/><path d="M112 112h5v5h-5z" class="B"/><path d="M117 112h5v5h-5z" class="B"/><path d="M122 112h5v5h-5z" class="B"/><path d="M127 112h5v5h-5zm10 0h5v5h-5z" class="B"/><path d="M142 112h5v5h-5zm10 0h5v5h-5z" class="B"/><path d="M157 112h5v5h-5z" class="B"/><path d="M162 112h5v5h-5z" class="B"/><path d="M167 112h5v5h-5zm-145 5h5v5h-5z" class="B"/><path d="M27 117h5v5h-5z" class="B"/><path d="M32 117h5v5h-5z" class="B"/><path d="M37 117h5v5h-5z" class="B"/><path d="M42 117h5v5h-5z" class="B"/><path d="M47 117h5v5h-5z" class="B"/><path d="M52 117h5v5h-5zm10 0h5v5h-5z" class="B"/><path d="M67 117h5v5h-5z" class="B"/><path d="M72 117h5v5h-5zm20 0h5v5h-5z" class="B"/><path d="M97 117h5v5h-5z" class="B"/><path d="M102 117h5v5h-5zm10 0h5v5h-5zm15 0h5v5h-5z" class="B"/><path d="M132 117h5v5h-5zm10 0h5v5h-5zm10 0h5v5h-5z" class="B"/><path d="M157 117h5v5h-5zm15 0h5v5h-5zm-155 5h5v5h-5z" class="B"/><path d="M22 122h5v5h-5zm10 0h5v5h-5z" class="B"/><path d="M37 122h5v5h-5zm20 0h5v5h-5z" class="B"/><path d="M62 122h5v5h-5zm15 0h5v5h-5z" class="B"/><path d="M82 122h5v5h-5z" class="B"/><path d="M87 122h5v5h-5zm10 0h5v5h-5zm10 0h5v5h-5z" class="B"/><path d="M112 122h5v5h-5z" class="B"/><path d="M117 122h5v5h-5zm15 0h5v5h-5z" class="B"/><path d="M137 122h5v5h-5zm10 0h5v5h-5zm25 0h5v5h-5z" class="B"/><path d="M177 122h5v5h-5zm-160 5h5v5h-5zm25 0h5v5h-5z" class="B"/><path d="M47 127h5v5h-5z" class="B"/><path d="M52 127h5v5h-5z" class="B"/><path d="M57 127h5v5h-5z" class="B"/><path d="M62 127h5v5h-5zm20 0h5v5h-5z" class="B"/><path d="M87 127h5v5h-5z" class="B"/><path d="M92 127h5v5h-5zm25 0h5v5h-5zm10 0h5v5h-5zm10 0h5v5h-5z" class="B"/><path d="M142 127h5v5h-5z" class="B"/><path d="M147 127h5v5h-5z" class="B"/><path d="M152 127h5v5h-5zm10 0h5v5h-5zm10 0h5v5h-5zm-155 5h5v5h-5zm15 0h5v5h-5z" class="B"/><path d="M37 132h5v5h-5zm15 0h5v5h-5z" class="B"/><path d="M57 132h5v5h-5z" class="B"/><path d="M62 132h5v5h-5zm15 0h5v5h-5z" class="B"/><path d="M82 132h5v5h-5zm10 0h5v5h-5zm20 0h5v5h-5z" class="B"/><path d="M117 132h5v5h-5z" class="B"/><path d="M122 132h5v5h-5zm15 0h5v5h-5zm15 0h5v5h-5zm10 0h5v5h-5z" class="B"/><path d="M167 132h5v5h-5zm-150 5h5v5h-5zm15 0h5v5h-5z" class="B"/><path d="M37 137h5v5h-5zm10 0h5v5h-5zm10 0h5v5h-5z" class="B"/><path d="M62 137h5v5h-5zm15 0h5v5h-5zm10 0h5v5h-5z" class="B"/><path d="M92 137h5v5h-5z" class="B"/><path d="M97 137h5v5h-5z" class="B"/><path d="M102 137h5v5h-5zm15 0h5v5h-5zm10 0h5v5h-5z" class="B"/><path d="M132 137h5v5h-5z" class="B"/><path d="M137 137h5v5h-5z" class="B"/><path d="M142 137h5v5h-5z" class="B"/><path d="M147 137h5v5h-5z" class="B"/><path d="M152 137h5v5h-5z" class="B"/><path d="M157 137h5v5h-5z" class="B"/><path d="M162 137h5v5h-5zm15 0h5v5h-5zm-120 5h5v5h-5zm10 0h5v5h-5zm30 0h5v5h-5zm15 0h5v5h-5z" class="B"/><path d="M117 142h5v5h-5zm15 0h5v5h-5z" class="B"/><path d="M137 142h5v5h-5zm20 0h5v5h-5z" class="B"/><path d="M162 142h5v5h-5z" class="B"/><path d="M167 142h5v5h-5zm10 0h5v5h-5zm-160 5h5v5h-5z" class="B"/><path d="M22 147h5v5h-5z" class="B"/><path d="M27 147h5v5h-5z" class="B"/><path d="M32 147h5v5h-5z" class="B"/><path d="M37 147h5v5h-5z" class="B"/><path d="M42 147h5v5h-5z" class="B"/><path d="M47 147h5v5h-5zm10 0h5v5h-5z" class="B"/><path d="M62 147h5v5h-5zm10 0h5v5h-5z" class="B"/><path d="M77 147h5v5h-5zm15 0h5v5h-5z" class="B"/><path d="M97 147h5v5h-5z" class="B"/><path d="M102 147h5v5h-5z" class="B"/><path d="M107 147h5v5h-5zm10 0h5v5h-5zm10 0h5v5h-5z" class="B"/><path d="M132 147h5v5h-5z" class="B"/><path d="M137 147h5v5h-5zm10 0h5v5h-5zm10 0h5v5h-5zm10 0h5v5h-5z" class="B"/><path d="M172 147h5v5h-5zm-155 5h5v5h-5zm30 0h5v5h-5zm20 0h5v5h-5z" class="B"/><path d="M72 152h5v5h-5zm15 0h5v5h-5z" class="B"/><path d="M92 152h5v5h-5zm20 0h5v5h-5z" class="B"/><path d="M117 152h5v5h-5z" class="B"/><path d="M122 152h5v5h-5z" class="B"/><path d="M127 152h5v5h-5zm10 0h5v5h-5zm20 0h5v5h-5z" class="B"/><path d="M162 152h5v5h-5z" class="B"/><path d="M167 152h5v5h-5zm10 0h5v5h-5zm-160 5h5v5h-5zm10 0h5v5h-5z" class="B"/><path d="M32 157h5v5h-5z" class="B"/><path d="M37 157h5v5h-5zm10 0h5v5h-5zm10 0h5v5h-5z" class="B"/><path d="M62 157h5v5h-5zm10 0h5v5h-5zm30 0h5v5h-5zm10 0h5v5h-5zm15 0h5v5h-5zm10 0h5v5h-5z" class="B"/><path d="M142 157h5v5h-5z" class="B"/><path d="M147 157h5v5h-5z" class="B"/><path d="M152 157h5v5h-5z" class="B"/><path d="M157 157h5v5h-5zm20 0h5v5h-5zm-160 5h5v5h-5zm10 0h5v5h-5z" class="B"/><path d="M32 162h5v5h-5z" class="B"/><path d="M37 162h5v5h-5zm10 0h5v5h-5zm10 0h5v5h-5z" class="B"/><path d="M62 162h5v5h-5z" class="B"/><path d="M67 162h5v5h-5zm10 0h5v5h-5z" class="B"/><path d="M82 162h5v5h-5z" class="B"/><path d="M87 162h5v5h-5zm10 0h5v5h-5zm10 0h5v5h-5z" class="B"/><path d="M112 162h5v5h-5zm10 0h5v5h-5z" class="B"/><path d="M127 162h5v5h-5z" class="B"/><path d="M132 162h5v5h-5z" class="B"/><path d="M137 162h5v5h-5zm20 0h5v5h-5z" class="B"/><path d="M162 162h5v5h-5zm10 0h5v5h-5z" class="B"/><path d="M177 162h5v5h-5zm-160 5h5v5h-5zm10 0h5v5h-5z" class="B"/><path d="M32 167h5v5h-5z" class="B"/><path d="M37 167h5v5h-5zm10 0h5v5h-5zm10 0h5v5h-5zm10 0h5v5h-5zm15 0h5v5h-5z" class="B"/><path d="M87 167h5v5h-5z" class="B"/><path d="M92 167h5v5h-5zm10 0h5v5h-5z" class="B"/><path d="M107 167h5v5h-5zm20 0h5v5h-5zm10 0h5v5h-5z" class="B"/><path d="M142 167h5v5h-5z" class="B"/><path d="M147 167h5v5h-5zm15 0h5v5h-5zm-145 5h5v5h-5zm30 0h5v5h-5zm10 0h5v5h-5zm10 0h5v5h-5zm10 0h5v5h-5z" class="B"/><path d="M82 172h5v5h-5zm30 0h5v5h-5z" class="B"/><path d="M117 172h5v5h-5z" class="B"/><path d="M122 172h5v5h-5z" class="B"/><path d="M127 172h5v5h-5z" class="B"/><path d="M132 172h5v5h-5zm15 0h5v5h-5z" class="B"/><path d="M152 172h5v5h-5z" class="B"/><path d="M157 172h5v5h-5z" class="B"/><path d="M162 172h5v5h-5z" class="B"/><path d="M167 172h5v5h-5zm-150 5h5v5h-5z" class="B"/><path d="M22 177h5v5h-5z" class="B"/><path d="M27 177h5v5h-5z" class="B"/><path d="M32 177h5v5h-5z" class="B"/><path d="M37 177h5v5h-5z" class="B"/><path d="M42 177h5v5h-5z" class="B"/><path d="M47 177h5v5h-5zm10 0h5v5h-5zm20 0h5v5h-5zm10 0h5v5h-5z" class="B"/><path d="M92 177h5v5h-5z" class="B"/><path d="M97 177h5v5h-5z" class="B"/><path d="M102 177h5v5h-5zm10 0h5v5h-5zm15 0h5v5h-5zm10 0h5v5h-5zm10 0h5v5h-5z" class="B"/><path d="M152 177h5v5h-5zm10 0h5v5h-5zm10 0h5v5h-5z" class="B"/></svg>